<?xml version="1.0" encoding="UTF-8"?>
<svg id="Layer_2" xmlns="http://www.w3.org/2000/svg" version="1.1" xmlns:xlink="http://www.w3.org/1999/xlink" viewBox="0 0 1050 1050">
  <!-- Generator: Adobe Illustrator 29.8.4, SVG Export Plug-In . SVG Version: 2.1.1 Build 6)  -->
  <defs>
    <linearGradient id="linear-gradient" x1="525" y1="0" x2="525" y2="1050" gradientUnits="userSpaceOnUse">
      <stop offset=".5" stop-color="#363636"/>
      <stop offset=".75" stop-color="#242424"/>
    </linearGradient>
    <linearGradient id="linear-gradient1" x1="525" y1="1050" x2="525" y2="0" gradientUnits="userSpaceOnUse">
      <stop offset=".25" stop-color="#000"/>
      <stop offset=".75" stop-color="#666"/>
    </linearGradient>
    <linearGradient id="linear-gradient2" x1="525.01" y1="968.18" x2="525.01" y2="81.8" gradientUnits="userSpaceOnUse">
      <stop offset=".25" stop-color="#000"/>
      <stop offset=".75" stop-color="#666"/>
    </linearGradient>
    <radialGradient id="radial-gradient" cx="448.14" cy="440.31" fx="448.14" fy="440.31" r="233.89" gradientTransform="translate(-70.25 -59.85) scale(1.33)" gradientUnits="userSpaceOnUse">
      <stop offset="0" stop-color="#666"/>
      <stop offset="1" stop-color="#121212"/>
    </radialGradient>
  </defs>
  <g>
    <circle cx="525" cy="525" r="525" fill="url(#linear-gradient)"/>
    <path d="M525,18c68.45,0,134.85,13.4,197.34,39.84,60.37,25.53,114.59,62.09,161.16,108.66s83.13,100.79,108.66,161.16c26.43,62.49,39.84,128.89,39.84,197.34s-13.4,134.85-39.84,197.34c-25.53,60.37-62.09,114.59-108.66,161.16-46.57,46.57-100.79,83.13-161.16,108.66-62.49,26.43-128.89,39.84-197.34,39.84s-134.85-13.4-197.34-39.84c-60.37-25.53-114.59-62.09-161.16-108.66-46.57-46.57-83.13-100.79-108.66-161.16-26.43-62.49-39.84-128.89-39.84-197.34s13.4-134.85,39.84-197.34c25.53-60.37,62.09-114.59,108.66-161.16,46.57-46.57,100.79-83.13,161.16-108.66,62.49-26.43,128.89-39.84,197.34-39.84M525,0C235.05,0,0,235.05,0,525s235.05,525,525,525,525-235.05,525-525S814.95,0,525,0h0Z" fill="url(#linear-gradient1)"/>
  </g>
  <g>
    <path d="M861.81,244.39c6.8-5.67-50.53-63-56.2-56.2-89.53,17.84-190.18-23.86-240.87-99.77.8-8.82-80.28-8.82-79.47,0-50.69,75.92-151.35,117.61-240.87,99.77-5.67-6.8-63,50.53-56.2,56.2,17.83,89.53-23.86,190.18-99.77,240.87-8.82-.8-8.82,80.28,0,79.47,75.92,50.69,117.61,151.35,99.77,240.87-6.8,5.67,50.53,63,56.2,56.2,89.53-17.83,190.18,23.86,240.87,99.77-.8,8.82,80.28,8.82,79.47,0,50.69-75.92,151.35-117.61,240.87-99.77,5.67,6.8,63-50.53,56.2-56.2-17.83-89.53,23.86-190.18,99.77-240.87,8.82.8,8.82-80.28,0-79.47-75.92-50.69-117.61-151.34-99.77-240.87h0Z" fill="#121212"/>
    <path d="M525,105.8c10.79,0,18.74.66,23.48,1.31,47.22,66.51,130.83,109.17,214.95,109.17,13.68,0,27.26-1.14,40.46-3.38,3.81,2.89,9.9,8.05,17.53,15.67,7.63,7.63,12.78,13.72,15.67,17.53-16.39,95.91,26.39,199.19,105.8,255.41.65,4.74,1.31,12.69,1.31,23.47,0,10.78-.66,18.73-1.31,23.47-79.39,56.23-122.17,159.5-105.8,255.41-2.89,3.81-8.05,9.9-15.67,17.53-7.63,7.63-13.72,12.78-17.53,15.67-13.19-2.24-26.77-3.38-40.46-3.38-84.12,0-167.73,42.66-214.94,109.17-4.74.65-12.69,1.31-23.47,1.31s-18.74-.66-23.48-1.31c-47.22-66.51-130.84-109.17-214.96-109.17-13.68,0-27.26,1.13-40.45,3.37-3.81-2.89-9.9-8.05-17.53-15.67-7.63-7.63-12.78-13.72-15.67-17.53,16.39-95.91-26.39-199.19-105.8-255.41-.65-4.74-1.31-12.69-1.31-23.47,0-10.78.66-18.73,1.31-23.47,79.39-56.23,122.17-159.5,105.8-255.41,2.89-3.81,8.04-9.9,15.67-17.53,7.63-7.63,13.72-12.78,17.53-15.67,13.2,2.24,26.78,3.38,40.46,3.38,84.12,0,167.73-42.66,214.94-109.17,4.74-.65,12.69-1.31,23.47-1.31M525,81.8c-20.07,0-40.14,2.21-39.73,6.61-42.83,64.15-121.36,103.87-198.68,103.87-14.18,0-28.31-1.33-42.19-4.1-.32-.38-.79-.56-1.41-.56-10.46,0-61.21,51.41-54.79,56.76,17.83,89.53-23.86,190.18-99.77,240.87-.04,0-.09,0-.13,0-8.65,0-8.65,79.48,0,79.48.04,0,.09,0,.13,0,75.92,50.69,117.61,151.35,99.77,240.87-6.42,5.35,44.33,56.76,54.79,56.76.62,0,1.1-.18,1.41-.56,13.86-2.76,28-4.1,42.17-4.1,77.34,0,155.86,39.71,198.7,103.87-.4,4.41,19.67,6.62,39.74,6.62s40.14-2.21,39.73-6.62c42.83-64.15,121.36-103.87,198.68-103.87,14.18,0,28.31,1.33,42.19,4.1.32.38.79.56,1.41.56,10.46,0,61.21-51.41,54.79-56.76-17.83-89.53,23.86-190.18,99.77-240.87.04,0,.09,0,.13,0,8.65,0,8.65-79.48,0-79.48-.04,0-.09,0-.13,0-75.92-50.69-117.61-151.34-99.77-240.87,6.42-5.35-44.33-56.76-54.79-56.76-.62,0-1.1.18-1.41.56-13.87,2.76-28.01,4.1-42.18,4.1-77.33,0-155.85-39.72-198.69-103.87.4-4.41-19.67-6.61-39.74-6.61h0Z" fill="url(#linear-gradient2)"/>
  </g>
  <circle cx="525" cy="525" r="310.67" fill="url(#radial-gradient)" fill-opacity=".5"/>
  <circle cx="525" cy="46" r="35" fill="#fff"/>
  <rect x="497" y="132" width="56" height="388" rx="12" ry="12" fill="#fff"/>
</svg>