<?xml version="1.0" encoding="UTF-8"?>
<svg id="Layer_2" xmlns="http://www.w3.org/2000/svg" version="1.1" viewBox="0 0 1050 1050">
  <!-- Generator: Adobe Illustrator 29.8.4, SVG Export Plug-In . SVG Version: 2.1.1 Build 6)  -->
  <circle cx="525" cy="525" r="525" fill="#353131"/>
  <circle cx="525" cy="46" r="35" fill="#fff"/>
  <path d="M861.81,244.39c6.8-5.67-50.53-63-56.2-56.2-89.53,17.84-190.18-23.86-240.87-99.77.8-8.82-80.28-8.82-79.47,0-50.69,75.92-151.35,117.61-240.87,99.77-5.67-6.8-63,50.53-56.2,56.2,17.83,89.53-23.86,190.18-99.77,240.87-8.82-.8-8.82,80.28,0,79.47,75.92,50.69,117.61,151.35,99.77,240.87-6.8,5.67,50.53,63,56.2,56.2,89.53-17.83,190.18,23.86,240.87,99.77-.8,8.82,80.28,8.82,79.47,0,50.69-75.92,151.35-117.61,240.87-99.77,5.67,6.8,63-50.53,56.2-56.2-17.83-89.53,23.86-190.18,99.77-240.87,8.82.8,8.82-80.28,0-79.47-75.92-50.69-117.61-151.34-99.77-240.87Z" fill="#12100f"/>
  <rect x="497" y="132" width="56" height="388" rx="12" ry="12" fill="#fff"/>
</svg>